<?xml version="1.0" encoding="UTF-8" standalone="no"?>
<!-- Uploaded to: SVG Repo, www.svgrepo.com, Generator: SVG Repo Mixer Tools -->

<svg
   fill="#000000"
   width="800px"
   height="800px"
   viewBox="0 0 512 512"
   id="fill"
   version="1.1"
   sodipodi:docname="blood-medical-clinic-healthcare-svgrepo-com.svg"
   inkscape:export-filename="blood-medical-clinic-healthcare-svgrepo-com.png"
   inkscape:export-xdpi="96"
   inkscape:export-ydpi="96"
   inkscape:version="1.4 (e7c3feb1, 2024-10-09)"
   xmlns:inkscape="http://www.inkscape.org/namespaces/inkscape"
   xmlns:sodipodi="http://sodipodi.sourceforge.net/DTD/sodipodi-0.dtd"
   xmlns="http://www.w3.org/2000/svg"
   xmlns:svg="http://www.w3.org/2000/svg">
  <defs
     id="defs11" />
  <sodipodi:namedview
     id="namedview11"
     pagecolor="#ffffff"
     bordercolor="#000000"
     borderopacity="0.25"
     inkscape:showpageshadow="2"
     inkscape:pageopacity="0.0"
     inkscape:pagecheckerboard="0"
     inkscape:deskcolor="#d1d1d1"
     inkscape:zoom="0.37493899"
     inkscape:cx="-72.011715"
     inkscape:cy="360.05858"
     inkscape:window-width="1440"
     inkscape:window-height="847"
     inkscape:window-x="0"
     inkscape:window-y="25"
     inkscape:window-maximized="1"
     inkscape:current-layer="fill" />
  <title
     id="title1" />
  <path
     d="M398.592,14H115.409A100.522,100.522,0,0,0,15,114.409V397.592A100.522,100.522,0,0,0,115.409,498H398.592A100.522,100.522,0,0,0,499,397.592V114.409A100.522,100.522,0,0,0,398.592,14ZM487,397.592A88.509,88.509,0,0,1,398.592,486H115.409A88.509,88.509,0,0,1,27,397.592V114.409A88.509,88.509,0,0,1,115.409,26H398.592A88.509,88.509,0,0,1,487,114.409Z"
     id="path1"
     style="fill:#356e55;stroke:#000000;stroke-opacity:1;fill-opacity:1.0" />
  <path
     d="M342.176,83H171.824A46.877,46.877,0,0,0,125,129.824V382.176A46.877,46.877,0,0,0,171.824,429H342.176A46.877,46.877,0,0,0,389,382.176V129.824A46.877,46.877,0,0,0,342.176,83ZM377,382.176A34.863,34.863,0,0,1,342.176,417H171.824A34.863,34.863,0,0,1,137,382.176V129.824A34.863,34.863,0,0,1,171.824,95H342.176A34.863,34.863,0,0,1,377,129.824Z"
     id="path2"
     style="fill:#356e55;stroke:#000000;stroke-opacity:1;fill-opacity:1.0" />
  <path
     d="M313.176,110H200.824A46.877,46.877,0,0,0,154,156.824V319.176A46.877,46.877,0,0,0,200.824,366H313.176A46.877,46.877,0,0,0,360,319.176V156.824A46.877,46.877,0,0,0,313.176,110ZM348,319.176A34.863,34.863,0,0,1,313.176,354H200.824A34.863,34.863,0,0,1,166,319.176V156.824A34.863,34.863,0,0,1,200.824,122H313.176A34.863,34.863,0,0,1,348,156.824Z"
     id="path3"
     style="fill:#356e55;stroke:#000000;stroke-opacity:1;fill-opacity:1.0" />
  <path
     d="M186,391H160a6,6,0,0,0,0,12h26a6,6,0,0,0,0-12Z"
     id="path4"
     style="fill:#356e55;stroke:#000000;stroke-opacity:1;fill-opacity:1.0" />
  <path
     d="M235,391H209a6,6,0,0,0,0,12h26a6,6,0,0,0,0-12Z"
     id="path5"
     style="fill:#356e55;stroke:#000000;stroke-opacity:1;fill-opacity:1.0" />
  <path
     d="M354,391H289a6,6,0,0,0,0,12h65a6,6,0,0,0,0-12Z"
     id="path6"
     style="fill:#356e55;stroke:#000000;stroke-opacity:1;fill-opacity:1.0" />
  <path
     d="M311.894,219.5c11.153,0,19.563-14.572,19.563-33.9s-8.41-33.9-19.563-33.9-19.564,14.573-19.564,33.9S300.74,219.5,311.894,219.5Zm0-55.795c2.31,0,7.563,8.273,7.563,21.9s-5.253,21.9-7.563,21.9-7.564-8.273-7.564-21.9S309.583,163.709,311.894,163.709Z"
     id="path7"
     style="fill:#356e55;stroke:#000000;stroke-opacity:1;fill-opacity:1.0" />
  <path
     d="M243.883,206.766h-8.17V158.447a6,6,0,0,0-9.841-4.609L211.7,165.646a6,6,0,0,0,7.683,9.219l4.329-3.608v35.509h-8.171a6,6,0,0,0,0,12h28.341a6,6,0,0,0,0-12Z"
     id="path8"
     style="fill:#356e55;stroke:#000000;stroke-opacity:1;fill-opacity:1.0" />
  <path
     d="M257.511,178.027a6,6,0,0,0,6-6,7.58,7.58,0,1,1,15.159,0c0,8.017-14.827,26.141-25.356,36.451a6,6,0,0,0,4.2,10.288H284.67a6,6,0,0,0,0-12H271.4c8.576-9.809,19.267-24.162,19.267-34.739,0-.207-.011-.412-.031-.614a19.569,19.569,0,0,0-39.128.614A6,6,0,0,0,257.511,178.027Z"
     id="path9"
     style="fill:#356e55;stroke:#000000;stroke-opacity:1;fill-opacity:1.0" />
  <path
     d="M312.152,229.938c-11.137,0-19.536,14.211-19.536,33.055s8.4,33.056,19.536,33.056,19.536-14.211,19.536-33.056S323.29,229.938,312.152,229.938Zm0,54.111c-2.187,0-7.536-7.379-7.536-21.056s5.349-21.055,7.536-21.055,7.536,7.378,7.536,21.055S314.34,284.049,312.152,284.049Z"
     id="path10"
     style="fill:#356e55;stroke:#000000;stroke-opacity:1;fill-opacity:1.0" />
  <path
     d="M283.432,257.374a18.753,18.753,0,0,0,3.7-11.248c0-9.959-7.576-18.062-16.888-18.062s-16.888,8.1-16.888,18.062a18.753,18.753,0,0,0,3.7,11.248,22.747,22.747,0,0,0-7.326,16.9c0,12.176,9.2,22.083,20.517,22.083s20.517-9.907,20.517-22.083A22.745,22.745,0,0,0,283.432,257.374Zm-18.078-11.248c0-3.286,2.238-6.062,4.888-6.062s4.888,2.776,4.888,6.062-2.238,6.062-4.888,6.062S265.354,249.412,265.354,246.126Zm4.888,38.227c-4.7,0-8.517-4.524-8.517-10.083s3.821-10.082,8.517-10.082,8.517,4.522,8.517,10.082S274.938,284.353,270.242,284.353Z"
     id="path11"
     style="fill:#356e55;stroke:#000000;stroke-opacity:1;fill-opacity:1.0" />
</svg>
