<?xml version="1.0" encoding="UTF-8" standalone="no"?>
<!-- Uploaded to: SVG Repo, www.svgrepo.com, Generator: SVG Repo Mixer Tools -->

<svg
   fill="#000000"
   height="800px"
   width="800px"
   version="1.1"
   id="Layer_1"
   viewBox="0 0 512 512"
   xml:space="preserve"
   sodipodi:docname="icono_contratos.svg"
   inkscape:version="1.4 (e7c3feb1, 2024-10-09)"
   inkscape:export-filename="../icono_contratos.png"
   inkscape:export-xdpi="96"
   inkscape:export-ydpi="96"
   xmlns:inkscape="http://www.inkscape.org/namespaces/inkscape"
   xmlns:sodipodi="http://sodipodi.sourceforge.net/DTD/sodipodi-0.dtd"
   xmlns="http://www.w3.org/2000/svg"
   xmlns:svg="http://www.w3.org/2000/svg"><defs
   id="defs14" /><sodipodi:namedview
   id="namedview14"
   pagecolor="#ffffff"
   bordercolor="#000000"
   borderopacity="0.25"
   inkscape:showpageshadow="2"
   inkscape:pageopacity="0.0"
   inkscape:pagecheckerboard="0"
   inkscape:deskcolor="#d1d1d1"
   inkscape:zoom="0.30883819"
   inkscape:cx="35.617357"
   inkscape:cy="689.68155"
   inkscape:window-width="1440"
   inkscape:window-height="847"
   inkscape:window-x="0"
   inkscape:window-y="25"
   inkscape:window-maximized="1"
   inkscape:current-layer="Layer_1" />
<g
   id="g2"
   style="fill:#43a76e;fill-opacity:1">
	<g
   id="g1"
   style="fill:#43a76e;fill-opacity:1">
		<path
   d="M443.103,71.306H416.76V44.963c0-5.142-4.167-9.31-9.31-9.31h-26.342V9.31c0-5.142-4.167-9.31-9.31-9.31h-302.9    c-5.143,0-9.31,4.169-9.31,9.31v422.074c0,5.142,4.167,9.31,9.31,9.31H95.24v26.342c0,5.142,4.167,9.31,9.31,9.31h26.342v26.342    c0,5.142,4.167,9.31,9.31,9.31h302.9c5.143,0,9.31-4.169,9.31-9.31V80.616C452.413,75.474,448.246,71.306,443.103,71.306z     M78.208,422.074V18.621h284.279v403.453H78.208z M113.862,457.726v-17.032h257.935c5.143,0,9.31-4.169,9.31-9.31V54.274h17.033    v403.453H113.862z M433.792,493.379H149.513v-17.032H407.45c5.143,0,9.31-4.169,9.31-9.31V89.927h17.032V493.379z"
   id="path1"
   style="fill:#43a76e;fill-opacity:1" />
	</g>
</g>
<g
   id="g4"
   style="fill:#43a76e;fill-opacity:1">
	<g
   id="g3"
   style="fill:#43a76e;fill-opacity:1">
		<path
   d="M271.292,95.592H169.404c-5.143,0-9.31,4.169-9.31,9.31s4.167,9.31,9.31,9.31h101.887c5.143,0,9.31-4.169,9.31-9.31    S276.435,95.592,271.292,95.592z"
   id="path2"
   style="fill:#43a76e;fill-opacity:1" />
	</g>
</g>
<g
   id="g6"
   style="fill:#43a76e;fill-opacity:1">
	<g
   id="g5"
   style="fill:#43a76e;fill-opacity:1">
		<path
   d="M313.448,141.771h-186.2c-5.143,0-9.31,4.169-9.31,9.31s4.167,9.31,9.31,9.31h186.2c5.143,0,9.31-4.169,9.31-9.31    S318.59,141.771,313.448,141.771z"
   id="path4"
   style="fill:#43a76e;fill-opacity:1" />
	</g>
</g>
<g
   id="g8"
   style="fill:#43a76e;fill-opacity:1">
	<g
   id="g7"
   style="fill:#43a76e;fill-opacity:1">
		<path
   d="M313.448,187.948h-186.2c-5.143,0-9.31,4.169-9.31,9.31s4.167,9.31,9.31,9.31h186.2c5.143,0,9.31-4.169,9.31-9.31    S318.59,187.948,313.448,187.948z"
   id="path6"
   style="fill:#43a76e;fill-opacity:1" />
	</g>
</g>
<g
   id="g10"
   style="fill:#43a76e;fill-opacity:1">
	<g
   id="g9"
   style="fill:#43a76e;fill-opacity:1">
		<path
   d="M313.448,234.125h-186.2c-5.143,0-9.31,4.169-9.31,9.31s4.167,9.31,9.31,9.31h186.2c5.143,0,9.31-4.169,9.31-9.31    S318.59,234.125,313.448,234.125z"
   id="path8"
   style="fill:#43a76e;fill-opacity:1" />
	</g>
</g>
<g
   id="g12"
   style="fill:#43a76e;fill-opacity:1">
	<g
   id="g11"
   style="fill:#43a76e;fill-opacity:1">
		<path
   d="M313.448,280.303h-186.2c-5.143,0-9.31,4.169-9.31,9.31s4.167,9.31,9.31,9.31h186.2c5.143,0,9.31-4.169,9.31-9.31    S318.59,280.303,313.448,280.303z"
   id="path10"
   style="fill:#43a76e;fill-opacity:1" />
	</g>
</g>
<g
   id="g14"
   style="fill:#43a76e;fill-opacity:1">
	<g
   id="g13"
   style="fill:#43a76e;fill-opacity:1">
		<path
   d="M313.448,326.48h-186.2c-5.143,0-9.31,4.169-9.31,9.31s4.167,9.31,9.31,9.31h186.2c5.143,0,9.31-4.169,9.31-9.31    S318.59,326.48,313.448,326.48z"
   id="path12"
   style="fill:#43a76e;fill-opacity:1" />
	</g>
</g>
</svg>
