<?xml version="1.0" encoding="UTF-8" standalone="no"?>
<!-- Uploaded to: SVG Repo, www.svgrepo.com, Generator: SVG Repo Mixer Tools -->

<svg
   width="800px"
   height="800px"
   viewBox="0 0 24 24"
   fill="none"
   version="1.1"
   id="svg2"
   sodipodi:docname="calculator-minimalistic-svgrepo-com(1).svg"
   inkscape:export-filename="calculator-minimalistic-svgrepo-com(1).png"
   inkscape:export-xdpi="96"
   inkscape:export-ydpi="96"
   inkscape:version="1.4 (e7c3feb1, 2024-10-09)"
   xmlns:inkscape="http://www.inkscape.org/namespaces/inkscape"
   xmlns:sodipodi="http://sodipodi.sourceforge.net/DTD/sodipodi-0.dtd"
   xmlns="http://www.w3.org/2000/svg"
   xmlns:svg="http://www.w3.org/2000/svg">
  <defs
     id="defs2" />
  <sodipodi:namedview
     id="namedview2"
     pagecolor="#ffffff"
     bordercolor="#000000"
     borderopacity="0.25"
     inkscape:showpageshadow="2"
     inkscape:pageopacity="0.0"
     inkscape:pagecheckerboard="0"
     inkscape:deskcolor="#d1d1d1"
     inkscape:zoom="0.23369343"
     inkscape:cx="547.72613"
     inkscape:cy="94.140429"
     inkscape:window-width="1440"
     inkscape:window-height="847"
     inkscape:window-x="0"
     inkscape:window-y="25"
     inkscape:window-maximized="1"
     inkscape:current-layer="svg2" />
  <path
     d="M3.46447 20.5355C4.92893 22 7.28595 22 12 22C16.714 22 19.0711 22 20.5355 20.5355C22 19.0711 22 16.714 22 12C22 7.28595 22 4.92893 20.5355 3.46447C19.0711 2 16.714 2 12 2C7.28595 2 4.92893 2 3.46447 3.46447C2 4.92893 2 7.28595 2 12C2 16.714 2 19.0711 3.46447 20.5355Z"
     stroke="#1C274D"
     stroke-width="1.5"
     id="path1"
     style="fill:none;fill-opacity:1;stroke:#4e6e81;stroke-opacity:1" />
  <path
     d="M18 8.49998H14M18 14.5H14M18 17.5H14M10 8.49999H8M8 8.49999L6 8.49999M8 8.49999L8 6.49998M8 8.49999L8 10.5M9.5 14.5L8.00001 16M8.00001 16L6.50001 17.5M8.00001 16L6.5 14.5M8.00001 16L9.49999 17.5"
     stroke="#1C274D"
     stroke-width="1.5"
     stroke-linecap="round"
     id="path2"
     style="fill:none;fill-opacity:1;stroke:#4e6e81;stroke-opacity:1" />
</svg>
