<?xml version="1.0" encoding="UTF-8" standalone="no"?>
<!-- Uploaded to: SVG Repo, www.svgrepo.com, Generator: SVG Repo Mixer Tools -->

<svg
   width="800px"
   height="800px"
   viewBox="0 0 24 24"
   fill="none"
   version="1.1"
   id="svg5"
   sodipodi:docname="dropper-3-svgrepo-com.svg"
   inkscape:version="1.4 (e7c3feb1, 2024-10-09)"
   xmlns:inkscape="http://www.inkscape.org/namespaces/inkscape"
   xmlns:sodipodi="http://sodipodi.sourceforge.net/DTD/sodipodi-0.dtd"
   xmlns="http://www.w3.org/2000/svg"
   xmlns:svg="http://www.w3.org/2000/svg">
  <defs
     id="defs5" />
  <sodipodi:namedview
     id="namedview5"
     pagecolor="#ffffff"
     bordercolor="#000000"
     borderopacity="0.25"
     inkscape:showpageshadow="2"
     inkscape:pageopacity="0.0"
     inkscape:pagecheckerboard="0"
     inkscape:deskcolor="#d1d1d1"
     inkscape:zoom="0.2863178"
     inkscape:cx="-6.9852451"
     inkscape:cy="796.31794"
     inkscape:window-width="1440"
     inkscape:window-height="847"
     inkscape:window-x="0"
     inkscape:window-y="25"
     inkscape:window-maximized="1"
     inkscape:current-layer="svg5" />
  <path
     d="M22 16.5069V10C22 8.11438 22 7.17157 21.4142 6.58579C20.8284 6 19.8856 6 18 6H14C12.1144 6 11.1716 6 10.5858 6.58579C10 7.17157 10 8.11438 10 10V16.5069C10 17.1639 10.277 17.7906 10.7629 18.2329C13.7315 20.935 18.2685 20.935 21.2371 18.2329C21.723 17.7906 22 17.1639 22 16.5069Z"
     stroke="#1C274C"
     stroke-width="1.5"
     stroke-linecap="round"
     id="path1"
     style="fill:none;fill-opacity:1;stroke:#389e4c;stroke-opacity:1" />
  <path
     d="M18 16H14"
     stroke="#1C274C"
     stroke-width="1.5"
     stroke-linecap="round"
     id="path2"
     style="fill:none;fill-opacity:1;stroke:#389e4c;stroke-opacity:1" />
  <path
     d="M18 11.4166C18 12.5672 17.1046 13.4999 16 13.4999C14.8954 13.4999 14 12.5672 14 11.4166C14 10.6967 14.783 9.73582 15.3691 9.11737C15.7161 8.75124 16.2839 8.75124 16.6309 9.11737C17.217 9.73582 18 10.6967 18 11.4166Z"
     stroke="#1C274C"
     stroke-width="1.5"
     id="path3"
     style="fill:none;fill-opacity:1;stroke:#389e4c;stroke-opacity:1" />
  <path
     d="M16 21V22"
     stroke="#1C274C"
     stroke-width="1.5"
     stroke-linecap="round"
     id="path4"
     style="fill:none;fill-opacity:1;stroke:#389e4c;stroke-opacity:1" />
  <path
     d="M2 22V8C2 5.17157 2 3.75736 2.87868 2.87868C3.75736 2 5.17157 2 8 2H11.8913L11.9355 2.00008C12.6224 2.00503 13.2869 2.24559 13.8178 2.68156L13.8517 2.70975C13.8926 2.74382 13.913 2.76086 13.9309 2.77532C14.5341 3.26249 15.2747 3.48035 16 3.43581M18.5 2L17.9774 2.52261C17.9398 2.56024 17.9209 2.57906 17.9044 2.59508C17.3724 3.11098 16.6932 3.39324 16 3.43581M16 2V3.43581M16 3.43581V6"
     stroke="#1C274C"
     stroke-width="1.5"
     stroke-linecap="round"
     id="path5"
     style="fill:none;fill-opacity:1;stroke:#389e4c;stroke-opacity:1" />
</svg>
