<?xml version="1.0" encoding="UTF-8" standalone="no"?>
<!-- Uploaded to: SVG Repo, www.svgrepo.com, Generator: SVG Repo Mixer Tools -->

<svg
   fill="#000000"
   width="800px"
   height="800px"
   viewBox="0 0 64 64"
   version="1.1"
   id="svg8"
   sodipodi:docname="PerdidasInsensibles.svg"
   inkscape:export-filename="PerdidasInsensibles.png"
   inkscape:export-xdpi="96"
   inkscape:export-ydpi="96"
   inkscape:version="1.4 (e7c3feb1, 2024-10-09)"
   xmlns:inkscape="http://www.inkscape.org/namespaces/inkscape"
   xmlns:sodipodi="http://sodipodi.sourceforge.net/DTD/sodipodi-0.dtd"
   xmlns="http://www.w3.org/2000/svg"
   xmlns:svg="http://www.w3.org/2000/svg">
  <defs
     id="defs8" />
  <sodipodi:namedview
     id="namedview8"
     pagecolor="#ffffff"
     bordercolor="#000000"
     borderopacity="0.25"
     inkscape:showpageshadow="2"
     inkscape:pageopacity="0.0"
     inkscape:pagecheckerboard="0"
     inkscape:deskcolor="#d1d1d1"
     inkscape:zoom="0.32097213"
     inkscape:cx="-18.693212"
     inkscape:cy="576.37402"
     inkscape:window-width="1440"
     inkscape:window-height="847"
     inkscape:window-x="0"
     inkscape:window-y="25"
     inkscape:window-maximized="1"
     inkscape:current-layer="sweat" />
  <g
     id="sweat"
     style="fill:#86e7b8;fill-opacity:1.0">
    <path
       d="M 32.263399,2.5196867 A 29.985995,29.985995 0 0 0 6.4793441,47.831004 7.2546547,7.2546547 0 0 0 5.3919901,50.950717 4.6923731,4.6923731 0 0 0 10.078863,55.63759 4.6321312,4.6321312 0 0 0 12.422411,54.98543 29.98762,29.98762 0 1 0 32.263399,2.5196867 Z M 7.8916551,50.950717 a 11.892916,11.892916 0 0 1 2.1872079,-4.110818 11.867152,11.867152 0 0 1 2.187201,4.110818 2.1872079,2.1872079 0 0 1 -4.3744089,0 z m 24.3717439,9.06129 a 27.400343,27.400343 0 0 1 -18.093586,-6.821096 4.626632,4.626632 0 0 0 0.595924,-2.240194 c 0,-2.168343 -2.841369,-5.881843 -3.712004,-6.968705 a 1.2931998,1.2931998 0 0 0 -1.9504899,0 c -0.245343,0.306602 -0.652155,0.834143 -1.103228,1.464921 A 27.494571,27.494571 0 1 1 32.263399,60.012007 Z"
       id="path3"
       style="fill:#5c415d;fill-opacity:1;stroke-width:1.24984" />
    <path
       d="m 32.263399,40.014678 a 4.9993322,4.9993322 0 1 0 4.999333,4.999333 5.0045815,5.0045815 0 0 0 -4.999333,-4.999333 z"
       id="path4"
       style="fill:#5c415d;fill-opacity:1;stroke-width:1.24984" />
    <path
       d="m 51.010889,17.205225 c 0,-2.168337 -2.84137,-5.881843 -3.712002,-6.968682 a 1.2931998,1.2931998 0 0 0 -1.950487,0 c -0.870259,1.087355 -3.712004,4.800345 -3.712004,6.968682 a 4.686874,4.686874 0 0 0 9.373748,0 z m -4.686872,2.187208 a 2.1899574,2.1899574 0 0 1 -2.187211,-2.187208 11.892916,11.892916 0 0 1 2.187211,-4.110819 11.867152,11.867152 0 0 1 2.187212,4.110819 2.1899574,2.1899574 0 0 1 -2.187212,2.187208 z"
       id="path5"
       style="fill:#5c415d;fill-opacity:1;stroke-width:1.24984" />
    <path
       d="m 54.797883,21.485041 a 1.2931998,1.2931998 0 0 0 -1.950485,0 c -0.870258,1.087354 -3.712004,4.800338 -3.712004,6.968681 a 4.686874,4.686874 0 0 0 9.373748,0 c 7.45e-4,-2.168343 -2.840624,-5.881843 -3.711259,-6.968681 z m -0.97487,9.155889 a 2.1899574,2.1899574 0 0 1 -2.187208,-2.187208 11.892916,11.892916 0 0 1 2.187208,-4.110818 11.867152,11.867152 0 0 1 2.187215,4.110818 2.1899574,2.1899574 0 0 1 -2.187215,2.187208 z"
       id="path6"
       style="fill:#5c415d;fill-opacity:1;stroke-width:1.24984" />
    <path
       d="m 23.497451,27.909922 a 3.8869807,3.8869807 0 0 0 -3.660391,2.58814 1.2498331,1.2498331 0 1 0 2.355684,0.832524 1.385065,1.385065 0 0 1 2.627795,0.05363 1.2498331,1.2498331 0 1 0 2.387168,-0.737401 3.8639839,3.8639839 0 0 0 -3.710256,-2.736886 z"
       id="path7"
       style="fill:#5c415d;fill-opacity:1;stroke-width:1.24984" />
    <path
       d="m 40.995084,27.909922 a 3.8869807,3.8869807 0 0 0 -3.660356,2.58814 1.2498331,1.2498331 0 1 0 2.355671,0.832524 1.385065,1.385065 0 0 1 2.62779,0.05363 1.2498331,1.2498331 0 1 0 2.38718,-0.737401 3.8639839,3.8639839 0 0 0 -3.710285,-2.736886 z"
       id="path8"
       style="fill:#5c415d;fill-opacity:1;stroke-width:1.24984" />
  </g>
</svg>
