<?xml version="1.0" encoding="UTF-8" standalone="no"?>
<!-- Uploaded to: SVG Repo, www.svgrepo.com, Generator: SVG Repo Mixer Tools -->

<svg
   width="800px"
   height="800px"
   viewBox="0 0 24 24"
   fill="none"
   version="1.1"
   id="svg6"
   sodipodi:docname="icono_calendario.svg"
   inkscape:version="1.4 (e7c3feb1, 2024-10-09)"
   inkscape:export-filename="../icono_calendario.png"
   inkscape:export-xdpi="96"
   inkscape:export-ydpi="96"
   xmlns:inkscape="http://www.inkscape.org/namespaces/inkscape"
   xmlns:sodipodi="http://sodipodi.sourceforge.net/DTD/sodipodi-0.dtd"
   xmlns="http://www.w3.org/2000/svg"
   xmlns:svg="http://www.w3.org/2000/svg">
  <defs
     id="defs6" />
  <sodipodi:namedview
     id="namedview6"
     pagecolor="#ffffff"
     bordercolor="#000000"
     borderopacity="0.25"
     inkscape:showpageshadow="2"
     inkscape:pageopacity="0.0"
     inkscape:pagecheckerboard="0"
     inkscape:deskcolor="#d1d1d1"
     inkscape:zoom="0.0325"
     inkscape:cx="400"
     inkscape:cy="400"
     inkscape:window-width="1440"
     inkscape:window-height="847"
     inkscape:window-x="0"
     inkscape:window-y="25"
     inkscape:window-maximized="1"
     inkscape:current-layer="svg6" />
  <path
     d="M7 4V2.5"
     stroke="#1C274C"
     stroke-width="1.5"
     stroke-linecap="round"
     id="path1"
     style="stroke:#d8964a;stroke-opacity:1" />
  <path
     d="M17 4V2.5"
     stroke="#1C274C"
     stroke-width="1.5"
     stroke-linecap="round"
     id="path2"
     style="stroke:#d8964a;stroke-opacity:1" />
  <path
     d="M9 14.5L10.5 13V17"
     stroke="#1C274C"
     stroke-width="1.5"
     stroke-linecap="round"
     stroke-linejoin="round"
     id="path3"
     style="stroke:#d8964a;stroke-opacity:1" />
  <path
     d="M13 16V14C13 13.4477 13.4477 13 14 13C14.5523 13 15 13.4477 15 14V16C15 16.5523 14.5523 17 14 17C13.4477 17 13 16.5523 13 16Z"
     stroke="#1C274C"
     stroke-width="1.5"
     stroke-linecap="round"
     id="path4"
     style="stroke:#d8964a;stroke-opacity:1" />
  <path
     d="M21.5 9H16.625H10.75M2 9H5.875"
     stroke="#1C274C"
     stroke-width="1.5"
     stroke-linecap="round"
     id="path5"
     style="stroke:#d8964a;stroke-opacity:1" />
  <path
     d="M14 22H10C6.22876 22 4.34315 22 3.17157 20.8284C2 19.6569 2 17.7712 2 14V12C2 8.22876 2 6.34315 3.17157 5.17157C4.34315 4 6.22876 4 10 4H14C17.7712 4 19.6569 4 20.8284 5.17157C22 6.34315 22 8.22876 22 12V14C22 17.7712 22 19.6569 20.8284 20.8284C20.1752 21.4816 19.3001 21.7706 18 21.8985"
     stroke="#1C274C"
     stroke-width="1.5"
     stroke-linecap="round"
     id="path6"
     style="stroke:#d8964a;stroke-opacity:1" />
</svg>
